HIERARCHY
ROOT joint_Root
{
	OFFSET 0.0 0.0 0.0
	CHANNELS 6 Xposition Yposition Zposition Zrotation Xrotation Yrotation 
	JOINT Hips
	{
		OFFSET 4.5925 91.4895 -427.239
		CHANNELS 6 Xposition Yposition Zposition Zrotation Xrotation Yrotation 
		JOINT Spine
		{
			OFFSET 15.7357 0.0 0.0
			CHANNELS 6 Xposition Yposition Zposition Zrotation Xrotation Yrotation 
			JOINT Chest
			{
				OFFSET 8.98455 -0.406207 0.0
				CHANNELS 6 Xposition Yposition Zposition Zrotation Xrotation Yrotation 
				JOINT Neck
				{
					OFFSET 16.3773 0.0 0.0
					CHANNELS 6 Xposition Yposition Zposition Zrotation Xrotation Yrotation 
					JOINT Head
					{
						OFFSET 6.45672 0.0 0.0
						CHANNELS 6 Xposition Yposition Zposition Zrotation Xrotation Yrotation 
						End Site
						{
							OFFSET 0.0 0.0 0.0
						}
					}
				}
				JOINT Shoulder_L
				{
					OFFSET 12.9942 -0.242716 4.98039
					CHANNELS 6 Xposition Yposition Zposition Zrotation Xrotation Yrotation 
					JOINT UpperArm_L
					{
						OFFSET 5.34809 0.0 0.0
						CHANNELS 6 Xposition Yposition Zposition Zrotation Xrotation Yrotation 
						JOINT LowerArm_L
						{
							OFFSET 24.3286 1.87007e-05 0.0
							CHANNELS 6 Xposition Yposition Zposition Zrotation Xrotation Yrotation 
							JOINT Hand_L
							{
								OFFSET 22.2916 0.0 0.0
								CHANNELS 6 Xposition Yposition Zposition Zrotation Xrotation Yrotation 
								End Site
								{
									OFFSET 0.0 0.0 0.0
								}
							}
						}
					}
				}
				JOINT Shoulder_R
				{
					OFFSET 12.9945 -0.242716 -4.98039
					CHANNELS 6 Xposition Yposition Zposition Zrotation Xrotation Yrotation 
					JOINT UpperArm_R
					{
						OFFSET -5.34813 0.0 0.0
						CHANNELS 6 Xposition Yposition Zposition Zrotation Xrotation Yrotation 
						JOINT LowerArm_R
						{
							OFFSET -24.3289 0.000322201 0.0
							CHANNELS 6 Xposition Yposition Zposition Zrotation Xrotation Yrotation 
							JOINT Hand_R
							{
								OFFSET -22.2915 -0.000108084 0.0
								CHANNELS 6 Xposition Yposition Zposition Zrotation Xrotation Yrotation 
								End Site
								{
									OFFSET 0.0 0.0 0.0
								}
							}
						}
					}
				}
			}
		}
		JOINT UpperLeg_L
		{
			OFFSET -2.19248 -6.46944 0.0
			CHANNELS 6 Xposition Yposition Zposition Zrotation Xrotation Yrotation 
			JOINT LowerLeg_L
			{
				OFFSET 39.0811 0.0 -1.23785e-05
				CHANNELS 6 Xposition Yposition Zposition Zrotation Xrotation Yrotation 
				JOINT Foot_L
				{
					OFFSET 40.9854 0.0 -1.26872e-05
					CHANNELS 6 Xposition Yposition Zposition Zrotation Xrotation Yrotation 
					JOINT Toes_L
					{
						OFFSET 11.7543 0.0 0.0
						CHANNELS 6 Xposition Yposition Zposition Zrotation Xrotation Yrotation 
						End Site
						{
							OFFSET 0.0 0.0 0.0
						}
					}
				}
			}
		}
		JOINT UpperLeg_R
		{
			OFFSET -2.19251 6.46944 0.0
			CHANNELS 6 Xposition Yposition Zposition Zrotation Xrotation Yrotation 
			JOINT LowerLeg_R
			{
				OFFSET -39.0811 -0.00228153 -0.0401928
				CHANNELS 6 Xposition Yposition Zposition Zrotation Xrotation Yrotation 
				JOINT Foot_R
				{
					OFFSET -40.9854 0.0 0.0
					CHANNELS 6 Xposition Yposition Zposition Zrotation Xrotation Yrotation 
					JOINT Toes_R
					{
						OFFSET -11.7543 0.0 0.0
						CHANNELS 6 Xposition Yposition Zposition Zrotation Xrotation Yrotation 
						End Site
						{
							OFFSET 0.0 0.0 0.0
						}
					}
				}
			}
		}
	}
}
MOTION
Frames:	8
Frame Time:	0.0333333
0.000000 0.000000 0.000000 0.000000 0.000000 -0.000000 142.141000 93.981100 -163.641000 88.886200 -14.355800 -2.976420 15.735700 0.000005 -0.000001 125.580000 81.945200 -126.960000 8.984550 -0.406207 -0.000000 5.508960 9.379030 -3.214250 16.377300 -0.000001 -0.000001 -1.927290 -0.345582 -2.312090 6.456720 -0.000001 -0.000000 -2.204460 -6.654740 2.060260 12.994200 -0.242716 4.980390 -85.789400 -9.347970 -65.617600 5.348090 -0.000007 -0.000001 -72.406900 33.312100 33.789100 24.328600 0.000019 0.000005 16.029600 1.612740 -84.403200 22.291600 -0.000001 0.000005 2.766790 5.572320 -9.805980 12.994500 -0.242716 -4.980390 89.726400 1.942870 -81.980500 -5.348130 -0.000001 -0.000004 -45.530600 45.355500 -46.396400 -24.328900 0.000322 -0.000009 -4.292780 1.817740 -112.919000 -22.291500 -0.000108 -0.000004 20.766100 5.594610 -11.025300 -2.192480 -6.469440 -0.000000 176.260000 -14.053700 -24.757400 39.081100 -0.000007 -0.000012 0.006538 -0.016520 21.593400 40.985400 -0.000006 -0.000013 -1.405250 3.261210 -62.613200 11.754300 -0.000000 0.000003 -0.008098 -0.088840 -20.194500 -2.192510 6.469440 -0.000001 175.781000 18.918400 -173.917000 -39.081100 -0.002282 -0.040193 0.029861 -0.064161 22.475500 -40.985400 0.000008 0.000006 12.647300 24.636000 -56.913800 -11.754300 -0.000006 -0.000006 -0.150492 -0.555708 -40.078300
0.000000 0.000000 0.000000 0.000000 0.000000 -0.000000 142.013000 91.808200 -160.088000 89.097500 -14.372600 -2.125080 15.735700 0.000005 -0.000001 120.206000 81.727600 -121.711000 8.984550 -0.406207 -0.000000 6.697610 8.312020 -3.497210 16.377300 -0.000001 -0.000001 -2.394190 0.026800 -2.322970 6.456720 -0.000001 -0.000000 -3.528080 -5.616680 0.963836 12.994200 -0.242716 4.980390 -86.848500 -7.140980 -66.112200 5.348090 -0.000007 -0.000001 -71.693100 28.508500 29.710700 24.328600 0.000019 0.000005 14.278200 1.942250 -82.413900 22.291600 -0.000001 0.000005 3.958950 5.578370 -10.122900 12.994500 -0.242716 -4.980390 89.557800 3.380600 -82.539300 -5.348130 -0.000001 -0.000004 -47.734300 46.837700 -40.132200 -24.328900 0.000322 -0.000009 -4.800560 1.450630 -106.768000 -22.291500 -0.000108 -0.000004 20.998100 5.592610 -10.914500 -2.192480 -6.469440 -0.000000 174.218000 -16.557500 -27.162000 39.081100 -0.000007 -0.000012 -0.001697 0.003728 24.477500 40.985400 -0.000006 -0.000013 0.247527 -1.984510 -64.757200 11.754300 -0.000000 0.000003 -0.007178 -0.081196 -19.882400 -2.192510 6.469440 -0.000001 174.325000 16.562800 -171.719000 -39.081100 -0.002282 -0.040193 0.030577 -0.056527 25.751300 -40.985400 0.000008 0.000006 13.124900 22.950600 -62.110800 -11.754300 -0.000006 -0.000006 -0.171060 -0.594719 -41.866300
0.000000 0.000000 0.000000 0.000000 0.000000 -0.000000 141.751000 89.376600 -156.090000 88.983900 -13.922000 -1.927360 15.735700 0.000005 -0.000001 115.491000 81.933100 -116.993000 8.984550 -0.406207 -0.000000 6.928940 6.931440 -3.424710 16.377300 -0.000001 -0.000001 -2.466990 0.177490 -1.539000 6.456720 -0.000001 -0.000000 -4.133110 -4.163550 -0.332681 12.994200 -0.242716 4.980390 -89.083000 -2.229910 -67.691200 5.348090 -0.000007 -0.000001 -68.565000 23.073000 26.530700 24.328600 0.000019 0.000005 15.159700 1.726810 -83.652000 22.291600 -0.000001 0.000005 4.185310 5.580520 -10.240000 12.994500 -0.242716 -4.980390 89.201500 6.709400 -83.195200 -5.348130 -0.000001 -0.000004 -50.911500 47.379600 -30.456900 -24.328900 0.000322 -0.000009 -3.565230 0.590474 -99.364000 -22.291500 -0.000108 -0.000004 20.382600 5.594990 -11.054100 -2.192480 -6.469440 -0.000000 172.123000 -18.880900 -31.282200 39.081100 -0.000007 -0.000012 0.133229 -0.204539 33.078600 40.985400 -0.000006 -0.000013 7.949770 -4.380380 -65.731300 11.754300 -0.000000 0.000003 -0.006583 -0.076049 -19.672400 -2.192510 6.469440 -0.000001 173.175000 15.576700 -169.630000 -39.081100 -0.002282 -0.040193 0.029942 -0.048160 28.947000 -40.985400 0.000008 0.000006 13.883800 21.942400 -66.847500 -11.754300 -0.000006 -0.000006 -0.197697 -0.641265 -44.040800
0.000000 0.000000 0.000000 0.000000 0.000000 -0.000000 141.449000 87.209600 -151.627000 88.671200 -14.129800 -2.784930 15.735700 0.000005 -0.000001 113.817000 82.372700 -115.347000 8.984550 -0.406207 -0.000000 6.301840 6.162170 -3.396800 16.377300 -0.000001 -0.000001 -3.247640 0.092354 -0.207757 6.456720 -0.000001 -0.000000 -3.658430 -2.874800 -1.088780 12.994200 -0.242716 4.980390 -91.941000 5.221740 -69.564200 5.348090 -0.000007 -0.000001 -63.283900 18.376100 22.607400 24.328600 0.000019 0.000005 13.339500 0.131722 -89.455900 22.291600 -0.000001 0.000005 3.934280 5.569290 -9.654060 12.994500 -0.242716 -4.980390 88.771500 10.838500 -83.493900 -5.348130 -0.000001 -0.000004 -56.451100 45.229600 -16.712000 -24.328900 0.000322 -0.000009 -3.110850 -0.063822 -88.865600 -22.291500 -0.000108 -0.000004 19.144800 5.624910 -12.980000 -2.192480 -6.469440 -0.000000 172.239000 -20.192400 -35.565900 39.081100 -0.000007 -0.000012 -0.116116 0.122105 43.560700 40.985400 -0.000006 -0.000013 7.635830 -4.471990 -65.674200 11.754300 -0.000000 0.000003 -0.004936 -0.060852 -19.052700 -2.192510 6.469440 -0.000001 173.048000 13.816900 -169.621000 -39.081100 -0.002282 -0.040193 0.038600 -0.053721 33.313000 -40.985400 0.000008 0.000006 14.618900 19.977800 -68.047200 -11.754300 -0.000006 -0.000006 -0.271143 -0.751963 -49.429000
0.000000 0.000000 0.000000 0.000000 0.000000 -0.000000 141.222000 85.591000 -146.501000 88.902300 -12.872800 -2.681270 15.735700 0.000005 -0.000001 110.026000 82.803500 -111.921000 8.984550 -0.406207 -0.000000 5.858470 4.947900 -4.039920 16.377300 -0.000001 -0.000001 -3.021100 -0.328170 0.727070 6.456720 -0.000001 -0.000000 -3.367020 -2.554450 1.839610 12.994200 -0.242716 4.980390 -92.889900 7.851110 -69.718200 5.348090 -0.000007 -0.000001 -64.273200 17.380700 12.127300 24.328600 0.000019 0.000005 14.072000 -1.284260 -95.099500 22.291600 -0.000001 0.000005 3.891320 5.563880 -9.378840 12.994500 -0.242716 -4.980390 88.351400 11.968900 -82.098000 -5.348130 -0.000001 -0.000004 -64.094800 41.144000 -4.509100 -24.328900 0.000322 -0.000009 -7.495060 -2.875020 -69.296800 -22.291500 -0.000108 -0.000004 20.992200 5.657720 -15.796800 -2.192480 -6.469440 -0.000000 173.152000 -16.692000 -35.446400 39.081100 -0.000007 -0.000012 -0.382945 0.309323 51.071400 40.985400 -0.000006 -0.000013 5.978580 -6.546280 -71.196600 11.754300 -0.000000 0.000003 -0.000437 -0.007057 -16.864100 -2.192510 6.469440 -0.000001 172.238000 13.624500 -171.115000 -39.081100 -0.002282 -0.040193 0.071461 -0.078579 40.949100 -40.985400 0.000008 0.000006 13.958000 19.204500 -61.895400 -11.754300 -0.000006 -0.000006 -0.462370 -0.963924 -61.023700
0.000000 0.000000 0.000000 0.000000 0.000000 -0.000000 141.408000 84.759100 -141.388000 90.075900 -9.699790 -1.116070 15.735700 0.000005 -0.000001 102.722000 82.969800 -105.041000 8.984550 -0.406207 -0.000000 6.023650 3.123330 -4.798980 16.377300 -0.000001 -0.000001 -2.068110 -1.530860 0.853517 6.456720 -0.000001 -0.000000 -2.458750 -3.103890 4.842460 12.994200 -0.242716 4.980390 -92.584600 7.535370 -71.006300 5.348090 -0.000007 -0.000001 -69.013500 20.811000 -1.613350 24.328600 0.000019 0.000005 14.134000 -2.556290 -100.052000 22.291600 -0.000001 0.000005 3.620890 5.574210 -9.906330 12.994500 -0.242716 -4.980390 88.154900 11.124500 -80.521200 -5.348130 -0.000001 -0.000004 -68.562000 36.027400 3.654550 -24.328900 0.000322 -0.000009 -11.429300 -11.088200 -46.481100 -22.291500 -0.000108 -0.000004 21.339700 5.639000 -14.062100 -2.192480 -6.469440 -0.000000 172.710000 -11.881000 -31.431400 39.081100 -0.000007 -0.000012 -0.580953 0.422104 54.000300 40.985400 -0.000006 -0.000013 4.815000 -8.503810 -75.612500 11.754300 -0.000000 0.000003 0.000725 0.013257 -16.039200 -2.192510 6.469440 -0.000001 170.357000 14.084000 -176.091000 -39.081100 -0.002282 -0.040193 0.135900 -0.098812 53.320700 -40.985400 0.000008 0.000006 8.895220 20.506000 -46.499400 -11.754300 -0.000006 -0.000006 -0.469609 -0.970430 -61.418400
0.000000 0.000000 0.000000 0.000000 0.000000 -0.000000 141.797000 84.489700 -137.053000 90.070900 -6.981710 -0.666591 15.735700 0.000005 -0.000001 96.117100 83.276900 -98.114300 8.984550 -0.406207 -0.000000 5.633850 1.466480 -4.062190 16.377300 -0.000001 -0.000001 -1.899850 -2.252580 0.194045 6.456720 -0.000001 -0.000000 -0.573722 -3.852850 5.377900 12.994200 -0.242716 4.980390 -92.169100 6.956690 -72.638600 5.348090 -0.000007 -0.000001 -68.068300 28.137300 -17.878700 24.328600 0.000019 0.000005 12.987300 -3.480380 -104.742000 22.291600 -0.000001 0.000005 4.165880 5.553780 -8.888380 12.994500 -0.242716 -4.980390 88.041600 11.541300 -80.301400 -5.348130 -0.000001 -0.000004 -65.956900 32.185700 15.185200 -24.328900 0.000322 -0.000009 -7.713450 -9.045780 -40.750700 -22.291500 -0.000108 -0.000004 19.297900 5.641180 -14.238200 -2.192480 -6.469440 -0.000000 172.686000 -9.693700 -27.742600 39.081100 -0.000007 -0.000012 -0.601525 0.427296 54.613200 40.985400 -0.000006 -0.000013 4.818730 -8.320410 -79.023600 11.754300 -0.000000 0.000003 -0.000012 -0.000164 -16.584000 -2.192510 6.469440 -0.000001 171.132000 11.529000 175.078000 -39.081100 -0.002282 -0.040193 0.167715 -0.079402 64.240000 -40.985400 0.000008 0.000006 -1.970570 17.975900 -25.379500 -11.754300 -0.000006 -0.000006 -0.112970 -0.475656 -36.493400
0.000000 0.000000 0.000000 0.000000 0.000000 -0.000000 141.911000 85.350700 -132.913000 89.754100 -3.710240 -1.373820 15.735700 0.000005 -0.000001 84.064300 83.475800 -85.487400 8.984550 -0.406207 -0.000000 5.198780 -1.314640 -2.783470 16.377300 -0.000001 -0.000001 -2.225500 -2.589720 -0.560315 6.456720 -0.000001 -0.000000 -1.005380 -2.534800 5.017010 12.994200 -0.242716 4.980390 -90.837000 2.939220 -74.102200 5.348090 -0.000007 -0.000001 -63.908600 32.452200 -33.952100 24.328600 0.000019 0.000005 14.477400 -5.263460 -109.560000 22.291600 -0.000001 0.000005 3.504670 5.514760 -7.126990 12.994500 -0.242716 -4.980390 88.019100 9.186960 -77.770500 -5.348130 -0.000001 -0.000004 -63.808600 38.138200 24.490200 -24.328900 0.000322 -0.000009 -5.972150 -5.799520 -46.001000 -22.291500 -0.000108 -0.000004 18.819000 5.656710 -15.736500 -2.192480 -6.469440 -0.000000 173.359000 -9.958140 -23.249200 39.081100 -0.000007 -0.000012 -0.485805 0.389660 51.268300 40.985400 -0.000006 -0.000013 5.997020 -4.987580 -80.885000 11.754300 -0.000000 0.000003 0.000724 0.016337 -15.906000 -2.192510 6.469440 -0.000001 172.831000 10.814900 167.395000 -39.081100 -0.002282 -0.040193 0.183215 -0.062582 70.839800 -40.985400 0.000008 0.000006 -3.181490 9.783090 -23.936500 -11.754300 -0.000006 -0.000006 -0.033587 -0.233458 -26.146500
